<svg width="18" height="18" viewBox="0 0 18 18" fill="none" xmlns="http://www.w3.org/2000/svg">
<path fill-rule="evenodd" clip-rule="evenodd" d="M8.993 2C5.129 2 2 5.136 2 9C2 12.864 5.129 16 8.993 16C12.864 16 16 12.864 16 9C16 5.136 12.864 2 8.993 2ZM9.7 5.49991H8.3V9.69991H9.7V5.49991ZM9.7 11.1001H8.3V12.5001H9.7V11.1001ZM3.39998 8.99991C3.39998 12.0939 5.90598 14.5999 8.99998 14.5999C12.094 14.5999 14.6 12.0939 14.6 8.99991C14.6 5.90591 12.094 3.39991 8.99998 3.39991C5.90598 3.39991 3.39998 5.90591 3.39998 8.99991Z" fill="#B01726"/>
</svg>
