<svg width="46" height="37" viewBox="0 0 46 37" fill="none" xmlns="http://www.w3.org/2000/svg">
<path d="M0 2C0 0.895432 0.895431 0 2 0H46V37H2C0.89543 37 0 36.1046 0 35V2Z" fill="#023031"/>
<path fill-rule="evenodd" clip-rule="evenodd" d="M16.3176 23.5776C15.3512 22.1668 15.7124 20.2345 17.1231 19.2681L20.4231 17.0075L19.3493 15.4401L16.0493 17.7007C13.7724 19.2605 13.1903 22.3744 14.7502 24.6514C16.31 26.9283 19.4239 27.5103 21.7009 25.9505L25.0008 23.6899L23.927 22.1224L20.6271 24.3831C19.2163 25.3495 17.2841 24.9883 16.3176 23.5776ZM20.2652 22.0854L26.8651 17.5642L25.7348 15.9142L19.1349 20.4355L20.2652 22.0854ZM20.9993 14.3097L24.2992 12.0491C26.5762 10.4893 29.6901 11.0713 31.2499 13.3483C32.8097 15.6253 32.2277 18.7392 29.9507 20.299L26.6508 22.5596L25.577 20.9921L28.8769 18.7315C30.2877 17.7651 30.6488 15.8328 29.6824 14.4221C28.716 13.0114 26.7837 12.6502 25.373 13.6166L22.073 15.8772L20.9993 14.3097Z" fill="white"/>
</svg>
